<?xml version="1.0" encoding="UTF-8" standalone="no"?>
<!DOCTYPE svg PUBLIC "-//W3C//DTD SVG 1.1//EN" "http://www.w3.org/Graphics/SVG/1.1/DTD/svg11.dtd">
<!-- Created with Vectornator (http://vectornator.io/) -->
<svg height="100%" stroke-miterlimit="10" style="fill-rule:nonzero;clip-rule:evenodd;stroke-linecap:round;stroke-linejoin:round;" version="1.1" viewBox="0 0 512 512" width="100%" xml:space="preserve" xmlns="http://www.w3.org/2000/svg" xmlns:vectornator="http://vectornator.io" xmlns:xlink="http://www.w3.org/1999/xlink">
<defs/>
<clipPath id="ArtboardFrame">
<rect height="512" width="512" x="0" y="0"/>
</clipPath>
<g clip-path="url(#ArtboardFrame)" id="Layer-1" vectornator:layerName="Layer 1">
<g fill="#454" opacity="1" stroke="none">
<path d="M0.160604 43.2806L18.6496 43.2806L18.6496 54.9903L18.9578 54.9903C21.0121 50.6762 23.9395 47.3379 27.7401 44.9754C31.5406 42.6129 35.906 41.4317 40.8365 41.4317C41.9663 41.4317 43.0705 41.5344 44.1491 41.7398C45.2276 41.9453 46.3318 42.202 47.4617 42.5102L47.4617 60.3829C45.9209 59.9721 44.4059 59.6382 42.9165 59.3814C41.4271 59.1246 39.9634 58.9962 38.5253 58.9962C34.2112 58.9962 30.7445 59.7923 28.1253 61.3844C25.506 62.9765 23.503 64.7997 22.1163 66.8541C20.7296 68.9084 19.8052 70.9627 19.343 73.0171C18.8807 75.0714 18.6496 76.6122 18.6496 77.6393L18.6496 117.237L0.160604 117.237L0.160604 43.2806Z"/>
<path d="M72.1137 86.7298C72.73 92.2765 74.8871 96.5906 78.5849 99.6721C82.2827 102.754 86.7509 104.294 91.9894 104.294C96.6117 104.294 100.489 103.344 103.622 101.444C106.755 99.5437 109.503 97.1555 111.865 94.2795L125.116 104.294C120.801 109.636 115.974 113.436 110.633 115.696C105.291 117.956 99.6932 119.086 93.8383 119.086C88.2916 119.086 83.0531 118.161 78.1227 116.312C73.1922 114.463 68.9295 111.844 65.3344 108.454C61.7393 105.065 58.8889 100.982 56.7832 96.2054C54.6775 91.4291 53.6247 86.1135 53.6247 80.2586C53.6247 74.4038 54.6775 69.0882 56.7832 64.3118C58.8889 59.5355 61.7393 55.4525 65.3344 52.0629C68.9295 48.6732 73.1922 46.0539 78.1227 44.205C83.0531 42.3561 88.2916 41.4317 93.8383 41.4317C98.9742 41.4317 103.673 42.3304 107.936 44.128C112.199 45.9255 115.845 48.5191 118.876 51.9088C121.906 55.2984 124.268 59.4841 125.963 64.4659C127.658 69.4477 128.505 75.1741 128.505 81.6453L128.505 86.7298L72.1137 86.7298ZM110.016 72.863C109.913 67.419 108.219 63.1306 104.932 59.9977C101.645 56.8649 97.0739 55.2984 91.219 55.2984C85.6723 55.2984 81.2812 56.8905 78.0456 60.0748C74.81 63.259 72.8327 67.5217 72.1137 72.863L110.016 72.863Z"/>
<path d="M145.762 43.2806L163.326 43.2806L163.326 54.374L163.634 54.374C166.305 49.8544 169.9 46.5675 174.42 44.5132C178.939 42.4588 183.818 41.4317 189.057 41.4317C194.706 41.4317 199.791 42.4332 204.31 44.4361C208.83 46.4391 212.682 49.1868 215.866 52.6792C219.05 56.1715 221.464 60.2802 223.107 65.0052C224.751 69.7301 225.573 74.8146 225.573 80.2586C225.573 85.7026 224.7 90.7871 222.953 95.5121C221.207 100.237 218.768 104.346 215.635 107.838C212.502 111.33 208.727 114.078 204.31 116.081C199.893 118.084 195.066 119.086 189.827 119.086C186.335 119.086 183.253 118.726 180.583 118.007C177.912 117.288 175.55 116.364 173.495 115.234C171.441 114.104 169.695 112.897 168.257 111.613C166.819 110.329 165.637 109.071 164.713 107.838L164.251 107.838L164.251 152.366L145.762 152.366L145.762 43.2806ZM207.084 80.2586C207.084 77.3825 206.596 74.6092 205.62 71.9386C204.644 69.2679 203.206 66.9054 201.306 64.8511C199.406 62.7968 197.12 61.1533 194.449 59.9207C191.779 58.6881 188.749 58.0718 185.359 58.0718C181.969 58.0718 178.939 58.6881 176.269 59.9207C173.598 61.1533 171.312 62.7968 169.412 64.8511C167.512 66.9054 166.074 69.2679 165.098 71.9386C164.122 74.6092 163.634 77.3825 163.634 80.2586C163.634 83.1347 164.122 85.908 165.098 88.5787C166.074 91.2493 167.512 93.6118 169.412 95.6661C171.312 97.7205 173.598 99.3639 176.269 100.597C178.939 101.829 181.969 102.445 185.359 102.445C188.749 102.445 191.779 101.829 194.449 100.597C197.12 99.3639 199.406 97.7205 201.306 95.6661C203.206 93.6118 204.644 91.2493 205.62 88.5787C206.596 85.908 207.084 83.1347 207.084 80.2586Z"/>
<path d="M243.137 0.75582L261.626 0.75582L261.626 117.237L243.137 117.237L243.137 0.75582Z"/>
<path d="M329.111 107.068L328.649 107.068C325.978 111.279 322.589 114.335 318.48 116.235C314.371 118.135 309.852 119.086 304.921 119.086C301.532 119.086 298.219 118.623 294.983 117.699C291.748 116.774 288.872 115.388 286.355 113.539C283.839 111.69 281.81 109.379 280.269 106.605C278.729 103.832 277.958 100.597 277.958 96.8987C277.958 92.8928 278.677 89.4775 280.115 86.6527C281.553 83.828 283.479 81.4655 285.893 79.5653C288.307 77.665 291.106 76.1499 294.29 75.0201C297.474 73.8902 300.787 73.0428 304.228 72.4778C307.669 71.9129 311.136 71.5534 314.628 71.3993C318.12 71.2452 321.407 71.1682 324.489 71.1682L329.111 71.1682L329.111 69.1652C329.111 64.5429 327.519 61.0763 324.335 58.7651C321.151 56.454 317.093 55.2984 312.163 55.2984C308.26 55.2984 304.613 55.9918 301.224 57.3785C297.834 58.7651 294.906 60.6397 292.441 63.0022L282.735 53.2955C286.843 49.0841 291.645 46.0539 297.141 44.205C302.636 42.3561 308.311 41.4317 314.166 41.4317C319.404 41.4317 323.821 42.0223 327.416 43.2035C331.011 44.3848 333.99 45.8999 336.353 47.7488C338.715 49.5977 340.538 51.729 341.822 54.1429C343.106 56.5567 344.031 58.9962 344.596 61.4614C345.161 63.9266 345.494 66.3148 345.597 68.6259C345.7 70.9371 345.751 72.9657 345.751 74.7119L345.751 117.237L329.111 117.237L329.111 107.068ZM328.033 84.1105L324.181 84.1105C321.613 84.1105 318.737 84.2132 315.553 84.4186C312.368 84.6241 309.364 85.112 306.539 85.8824C303.714 86.6527 301.326 87.7826 299.375 89.272C297.423 90.7614 296.447 92.8414 296.447 95.5121C296.447 97.2582 296.832 98.722 297.603 99.9032C298.373 101.084 299.375 102.086 300.607 102.908C301.84 103.729 303.227 104.32 304.767 104.68C306.308 105.039 307.849 105.219 309.39 105.219C315.758 105.219 320.457 103.704 323.487 100.674C326.518 97.6434 328.033 93.5091 328.033 88.2705L328.033 84.1105Z"/>
<path d="M416.164 65.4674C414.007 63.2076 411.747 61.4101 409.384 60.0748C407.022 58.7395 404.608 58.0718 402.143 58.0718C398.753 58.0718 395.723 58.6881 393.052 59.9207C390.382 61.1533 388.096 62.7968 386.196 64.8511C384.296 66.9054 382.858 69.2679 381.882 71.9386C380.906 74.6092 380.418 77.3825 380.418 80.2586C380.418 83.1347 380.906 85.908 381.882 88.5787C382.858 91.2493 384.296 93.6118 386.196 95.6661C388.096 97.7205 390.382 99.3639 393.052 100.597C395.723 101.829 398.753 102.445 402.143 102.445C405.019 102.445 407.689 101.855 410.155 100.674C412.62 99.4923 414.726 97.7718 416.472 95.5121L428.798 108.763C426.949 110.611 424.818 112.204 422.404 113.539C419.99 114.874 417.55 115.953 415.085 116.774C412.62 117.596 410.257 118.187 407.998 118.546C405.738 118.906 403.786 119.086 402.143 119.086C396.596 119.086 391.358 118.161 386.427 116.312C381.497 114.463 377.234 111.844 373.639 108.454C370.044 105.065 367.193 100.982 365.088 96.2054C362.982 91.4291 361.929 86.1135 361.929 80.2586C361.929 74.4038 362.982 69.0882 365.088 64.3118C367.193 59.5355 370.044 55.4525 373.639 52.0629C377.234 48.6732 381.497 46.0539 386.427 44.205C391.358 42.3561 396.596 41.4317 402.143 41.4317C406.868 41.4317 411.618 42.3304 416.395 44.128C421.171 45.9255 425.357 48.7759 428.952 52.6792L416.164 65.4674Z"/>
<path d="M454.682 86.7298C455.299 92.2765 457.456 96.5906 461.154 99.6721C464.851 102.754 469.32 104.294 474.558 104.294C479.18 104.294 483.058 103.344 486.191 101.444C489.324 99.5437 492.071 97.1555 494.434 94.2795L507.684 104.294C503.37 109.636 498.542 113.436 493.201 115.696C487.86 117.956 482.262 119.086 476.407 119.086C470.86 119.086 465.622 118.161 460.691 116.312C455.761 114.463 451.498 111.844 447.903 108.454C444.308 105.065 441.458 100.982 439.352 96.2054C437.246 91.4291 436.193 86.1135 436.193 80.2586C436.193 74.4038 437.246 69.0882 439.352 64.3118C441.458 59.5355 444.308 55.4525 447.903 52.0629C451.498 48.6732 455.761 46.0539 460.691 44.205C465.622 42.3561 470.86 41.4317 476.407 41.4317C481.543 41.4317 486.242 42.3304 490.505 44.128C494.768 45.9255 498.414 48.5191 501.444 51.9088C504.474 55.2984 506.837 59.4841 508.532 64.4659C510.227 69.4477 511.074 75.1741 511.074 81.6453L511.074 86.7298L454.682 86.7298ZM492.585 72.863C492.482 67.419 490.787 63.1306 487.5 59.9977C484.213 56.8649 479.643 55.2984 473.788 55.2984C468.241 55.2984 463.85 56.8905 460.614 60.0748C457.379 63.259 455.401 67.5217 454.682 72.863L492.585 72.863Z"/>
</g>
<g fill="#454" opacity="1" stroke="none">
<path d="M-0.663001 200.408L-0.663001 186.974L12.3755 186.974L12.3755 168.668L28.1797 168.668L28.1797 186.974L45.5644 186.974L45.5644 200.408L28.1797 200.408L28.1797 228.065C28.1797 231.226 28.7724 233.728 29.9577 235.572C31.143 237.416 33.4917 238.338 37.0038 238.338C38.4086 238.338 39.9451 238.184 41.6134 237.877C43.2816 237.57 44.5986 237.065 45.5644 236.363L45.5644 249.664C43.8962 250.455 41.8548 251.003 39.4403 251.311C37.0257 251.618 34.8966 251.772 33.0527 251.772C28.8383 251.772 25.3921 251.311 22.7141 250.389C20.0362 249.467 17.9289 248.062 16.3924 246.174C14.8559 244.287 13.8023 241.938 13.2316 239.128C12.6609 236.319 12.3755 233.07 12.3755 229.382L12.3755 200.408L-0.663001 200.408Z"/>
<path d="M173.88 195.798L174.144 195.798C175.373 193.164 177.546 190.772 180.663 188.621C183.78 186.469 187.797 185.394 192.714 185.394C196.928 185.394 200.506 186.096 203.447 187.501C206.389 188.906 208.781 190.75 210.625 193.033C212.469 195.315 213.786 197.949 214.576 200.935C215.367 203.92 215.762 207.037 215.762 210.285L215.762 250.191L199.957 250.191L199.957 218.188C199.957 216.432 199.87 214.478 199.694 212.327C199.518 210.176 199.057 208.156 198.311 206.269C197.565 204.381 196.401 202.8 194.821 201.527C193.241 200.254 191.089 199.618 188.368 199.618C185.734 199.618 183.517 200.057 181.717 200.935C179.917 201.813 178.424 202.998 177.239 204.491C176.053 205.983 175.197 207.695 174.671 209.627C174.144 211.559 173.88 213.578 173.88 215.685L173.88 250.191L158.076 250.191L158.076 150.624L173.88 150.624L173.88 195.798Z"/>
<path d="M333.936 186.974L349.741 186.974L349.741 250.191L333.936 250.191L333.936 186.974ZM331.698 165.507C331.698 162.961 332.641 160.744 334.529 158.856C336.417 156.968 338.809 156.024 341.707 156.024C344.604 156.024 347.041 156.924 349.016 158.724C350.992 160.524 351.98 162.785 351.98 165.507C351.98 168.229 350.992 170.49 349.016 172.289C347.041 174.089 344.604 174.989 341.707 174.989C338.809 174.989 336.417 174.045 334.529 172.158C332.641 170.27 331.698 168.053 331.698 165.507Z"/>
<path d="M501.631 204.491C498.558 200.188 494.432 198.037 489.251 198.037C487.144 198.037 485.081 198.564 483.061 199.618C481.042 200.671 480.032 202.383 480.032 204.754C480.032 206.686 480.866 208.09 482.535 208.968C484.203 209.846 486.31 210.593 488.856 211.207C491.402 211.822 494.146 212.459 497.088 213.117C500.029 213.776 502.773 214.785 505.319 216.146C507.865 217.507 509.972 219.373 511.641 221.744C513.309 224.114 514.143 227.363 514.143 231.49C514.143 235.265 513.331 238.448 511.707 241.038C510.082 243.628 507.975 245.713 505.385 247.294C502.795 248.874 499.875 250.016 496.627 250.718C493.378 251.42 490.129 251.772 486.881 251.772C481.964 251.772 477.442 251.069 473.315 249.664C469.189 248.26 465.501 245.713 462.252 242.026L472.789 232.148C474.808 234.431 476.981 236.297 479.308 237.745C481.635 239.194 484.466 239.918 487.803 239.918C488.944 239.918 490.129 239.787 491.359 239.523C492.588 239.26 493.729 238.821 494.783 238.206C495.836 237.592 496.693 236.823 497.351 235.902C498.01 234.98 498.339 233.904 498.339 232.675C498.339 230.48 497.505 228.855 495.836 227.802C494.168 226.748 492.061 225.892 489.515 225.234C486.969 224.575 484.225 223.961 481.283 223.39C478.342 222.819 475.598 221.897 473.052 220.624C470.506 219.351 468.399 217.573 466.73 215.29C465.062 213.007 464.228 209.846 464.228 205.808C464.228 202.296 464.952 199.244 466.401 196.654C467.85 194.064 469.759 191.935 472.13 190.267C474.501 188.599 477.223 187.369 480.296 186.579C483.369 185.789 486.486 185.394 489.646 185.394C493.861 185.394 498.031 186.118 502.158 187.567C506.285 189.016 509.621 191.496 512.168 195.008L501.631 204.491Z"/>
</g>
<g fill="#454" opacity="1" stroke="none">
<path d="M-0.102743 281.462L15.0577 281.462L27.1861 320.646L27.4194 320.646L38.7314 281.462L53.8919 281.462L66.0203 320.646L66.2535 320.646L77.9154 281.462L92.0263 281.462L73.0174 337.439L59.1398 337.439L45.8452 299.188L45.6119 299.188L33.8334 337.439L19.3726 337.439L-0.102743 281.462Z"/>
<path d="M100.54 281.462L114.534 281.462L114.534 337.439L100.54 337.439L100.54 281.462ZM98.557 262.453C98.557 260.198 99.3928 258.235 101.064 256.564C102.736 254.892 104.854 254.056 107.42 254.056C109.986 254.056 112.143 254.853 113.892 256.447C115.642 258.041 116.516 260.043 116.516 262.453C116.516 264.863 115.642 266.865 113.892 268.459C112.143 270.053 109.986 270.85 107.42 270.85C104.854 270.85 102.736 270.014 101.064 268.342C99.3928 266.671 98.557 264.708 98.557 262.453Z"/>
<path d="M124.097 293.357L124.097 281.462L135.642 281.462L135.642 265.252L149.636 265.252L149.636 281.462L165.03 281.462L165.03 293.357L149.636 293.357L149.636 317.847C149.636 320.646 150.161 322.862 151.211 324.494C152.26 326.127 154.34 326.943 157.45 326.943C158.694 326.943 160.054 326.807 161.531 326.535C163.008 326.263 164.175 325.816 165.03 325.194L165.03 336.973C163.553 337.672 161.745 338.158 159.607 338.43C157.469 338.702 155.584 338.838 153.951 338.838C150.219 338.838 147.168 338.43 144.796 337.614C142.425 336.798 140.559 335.554 139.199 333.882C137.838 332.211 136.905 330.131 136.4 327.643C135.895 325.155 135.642 322.279 135.642 319.013L135.642 293.357L124.097 293.357Z"/>
<path d="M190.103 289.275L190.336 289.275C191.425 286.943 193.349 284.824 196.109 282.92C198.869 281.015 202.426 280.062 206.78 280.062C210.511 280.062 213.679 280.684 216.284 281.928C218.888 283.172 221.007 284.805 222.64 286.826C224.272 288.848 225.439 291.18 226.138 293.823C226.838 296.467 227.188 299.227 227.188 302.103L227.188 337.439L213.194 337.439L213.194 309.101C213.194 307.546 213.116 305.816 212.96 303.911C212.805 302.006 212.397 300.218 211.736 298.547C211.075 296.875 210.045 295.476 208.645 294.348C207.246 293.221 205.341 292.657 202.931 292.657C200.599 292.657 198.636 293.046 197.042 293.823C195.448 294.601 194.126 295.651 193.077 296.972C192.027 298.294 191.269 299.81 190.803 301.52C190.336 303.231 190.103 305.019 190.103 306.885L190.103 337.439L176.109 337.439L176.109 249.275L190.103 249.275L190.103 289.275Z"/>
<path d="M269.987 281.462L285.381 281.462L301.008 320.296L301.241 320.296L315.235 281.462L329.813 281.462L303.34 349.451C302.329 352.094 301.222 354.407 300.016 356.39C298.811 358.372 297.393 360.044 295.76 361.404C294.127 362.765 292.203 363.776 289.987 364.436C287.771 365.097 285.109 365.428 281.999 365.428C278.345 365.428 274.768 364.961 271.27 364.028L273.019 351.433C274.108 351.822 275.254 352.152 276.459 352.425C277.664 352.697 278.889 352.833 280.133 352.833C281.843 352.833 283.282 352.677 284.448 352.366C285.614 352.055 286.605 351.569 287.422 350.909C288.238 350.248 288.918 349.392 289.462 348.343C290.007 347.293 290.59 346.03 291.212 344.553L293.894 337.906L269.987 281.462Z"/>
<path d="M335.294 309.45C335.294 305.019 336.091 300.996 337.684 297.38C339.278 293.765 341.436 290.675 344.157 288.109C346.878 285.544 350.104 283.561 353.836 282.162C357.568 280.762 361.533 280.062 365.731 280.062C369.93 280.062 373.895 280.762 377.626 282.162C381.358 283.561 384.585 285.544 387.306 288.109C390.027 290.675 392.184 293.765 393.778 297.38C395.372 300.996 396.169 305.019 396.169 309.45C396.169 313.882 395.372 317.905 393.778 321.521C392.184 325.136 390.027 328.226 387.306 330.792C384.585 333.357 381.358 335.34 377.626 336.739C373.895 338.139 369.93 338.838 365.731 338.838C361.533 338.838 357.568 338.139 353.836 336.739C350.104 335.34 346.878 333.357 344.157 330.792C341.436 328.226 339.278 325.136 337.684 321.521C336.091 317.905 335.294 313.882 335.294 309.45ZM349.288 309.45C349.288 311.627 349.657 313.726 350.396 315.748C351.135 317.769 352.223 319.557 353.661 321.112C355.1 322.667 356.829 323.911 358.851 324.844C360.872 325.777 363.166 326.244 365.731 326.244C368.297 326.244 370.59 325.777 372.612 324.844C374.633 323.911 376.363 322.667 377.801 321.112C379.24 319.557 380.328 317.769 381.067 315.748C381.805 313.726 382.175 311.627 382.175 309.45C382.175 307.274 381.805 305.174 381.067 303.153C380.328 301.132 379.24 299.343 377.801 297.789C376.363 296.234 374.633 294.99 372.612 294.057C370.59 293.124 368.297 292.657 365.731 292.657C363.166 292.657 360.872 293.124 358.851 294.057C356.829 294.99 355.1 296.234 353.661 297.789C352.223 299.343 351.135 301.132 350.396 303.153C349.657 305.174 349.288 307.274 349.288 309.45Z"/>
<path d="M460.309 337.439L447.015 337.439L447.015 328.459L446.782 328.459C445.46 331.258 443.439 333.688 440.717 335.748C437.996 337.808 434.303 338.838 429.639 338.838C425.907 338.838 422.739 338.236 420.134 337.031C417.53 335.826 415.411 334.193 413.778 332.133C412.146 330.073 410.98 327.721 410.28 325.077C409.58 322.434 409.23 319.674 409.23 316.797L409.23 281.462L423.225 281.462L423.225 309.8C423.225 311.355 423.302 313.085 423.458 314.99C423.613 316.895 424.021 318.683 424.682 320.354C425.343 322.026 426.354 323.425 427.714 324.553C429.075 325.68 430.999 326.244 433.487 326.244C435.819 326.244 437.782 325.855 439.376 325.077C440.97 324.3 442.292 323.25 443.341 321.929C444.391 320.607 445.149 319.091 445.615 317.381C446.082 315.67 446.315 313.882 446.315 312.016L446.315 281.462L460.309 281.462L460.309 337.439Z"/>
<path d="M476.17 281.462L490.164 281.462L490.164 290.325L490.397 290.325C491.952 287.06 494.168 284.533 497.044 282.745C499.921 280.957 503.225 280.062 506.957 280.062C507.812 280.062 508.648 280.14 509.464 280.296C510.281 280.451 511.116 280.646 511.972 280.879L511.972 294.407C510.805 294.096 509.659 293.843 508.531 293.649C507.404 293.454 506.296 293.357 505.208 293.357C501.942 293.357 499.319 293.96 497.336 295.165C495.353 296.37 493.837 297.75 492.788 299.305C491.738 300.86 491.039 302.414 490.689 303.969C490.339 305.524 490.164 306.69 490.164 307.468L490.164 337.439L476.17 337.439L476.17 281.462Z"/>
</g>
<g fill="#454" opacity="1" stroke="none">
<path d="M2.59562 379.17L24.7674 379.17L24.7674 467.857L2.59562 467.857L2.59562 379.17ZM-0.545377 349.054C-0.545377 345.482 0.778769 342.372 3.42706 339.723C6.07535 337.075 9.43191 335.751 13.4967 335.751C17.5615 335.751 20.9797 337.013 23.7512 339.538C26.5226 342.064 27.9084 345.235 27.9084 349.054C27.9084 352.872 26.5226 356.044 23.7512 358.569C20.9797 361.094 17.5615 362.357 13.4967 362.357C9.43191 362.357 6.07535 361.033 3.42706 358.384C0.778769 355.736-0.545377 352.626-0.545377 349.054Z"/>
<path d="M49.341 379.17L70.4042 379.17L70.4042 393.028L70.7737 393.028C72.7446 388.84 75.9163 385.114 80.2891 381.85C84.6619 378.585 90.5435 376.953 97.9341 376.953C111.853 376.953 121.091 382.435 125.649 393.397C128.851 387.731 132.855 383.574 137.658 380.926C142.462 378.277 148.19 376.953 154.842 376.953C160.754 376.953 165.743 377.939 169.808 379.91C173.872 381.88 177.167 384.59 179.692 388.039C182.218 391.488 184.034 395.522 185.143 400.141C186.252 404.76 186.806 409.718 186.806 415.015L186.806 467.857L164.634 467.857L164.634 417.601C164.634 414.892 164.388 412.274 163.895 409.749C163.402 407.224 162.54 405.007 161.308 403.097C160.077 401.188 158.414 399.679 156.32 398.571C154.226 397.462 151.516 396.908 148.19 396.908C144.741 396.908 141.816 397.555 139.414 398.848C137.012 400.141 135.041 401.866 133.501 404.021C131.962 406.177 130.853 408.64 130.176 411.412C129.498 414.183 129.159 416.986 129.159 419.819L129.159 467.857L106.988 467.857L106.988 415.015C106.988 409.472 105.817 405.068 103.477 401.804C101.137 398.54 97.2566 396.908 91.8369 396.908C88.1416 396.908 85.0314 397.524 82.5063 398.756C79.9812 399.987 77.8872 401.65 76.2243 403.744C74.5614 405.838 73.3604 408.24 72.6214 410.95C71.8823 413.66 71.5128 416.493 71.5128 419.449L71.5128 467.857L49.341 467.857L49.341 379.17Z"/>
<path d="M266.439 455.663L265.885 455.663C262.682 460.713 258.618 464.378 253.691 466.656C248.764 468.935 243.344 470.075 237.431 470.075C233.367 470.075 229.394 469.52 225.514 468.412C221.634 467.303 218.185 465.64 215.167 463.423C212.149 461.206 209.717 458.434 207.869 455.109C206.021 451.783 205.098 447.903 205.098 443.469C205.098 438.665 205.96 434.569 207.684 431.182C209.409 427.794 211.718 424.961 214.613 422.683C217.508 420.404 220.864 418.587 224.683 417.232C228.501 415.877 232.473 414.861 236.6 414.183C240.726 413.506 244.883 413.075 249.071 412.89C253.259 412.705 257.201 412.613 260.896 412.613L266.439 412.613L266.439 410.211C266.439 404.668 264.53 400.511 260.712 397.739C256.893 394.968 252.028 393.582 246.115 393.582C241.435 393.582 237.062 394.414 232.997 396.076C228.932 397.739 225.422 399.987 222.465 402.82L210.825 391.18C215.752 386.13 221.511 382.496 228.101 380.279C234.691 378.062 241.496 376.953 248.517 376.953C254.799 376.953 260.096 377.662 264.407 379.078C268.718 380.495 272.29 382.311 275.123 384.529C277.956 386.746 280.143 389.302 281.682 392.196C283.222 395.091 284.331 398.016 285.008 400.973C285.686 403.929 286.086 406.793 286.209 409.564C286.332 412.336 286.394 414.768 286.394 416.862L286.394 467.857L266.439 467.857L266.439 455.663ZM265.146 428.133L260.527 428.133C257.447 428.133 253.999 428.256 250.18 428.503C246.362 428.749 242.759 429.334 239.371 430.258C235.984 431.182 233.12 432.537 230.78 434.323C228.439 436.109 227.269 438.603 227.269 441.806C227.269 443.9 227.731 445.655 228.655 447.071C229.579 448.488 230.78 449.689 232.258 450.674C233.736 451.66 235.399 452.368 237.247 452.799C239.094 453.23 240.942 453.446 242.79 453.446C250.426 453.446 256.062 451.629 259.695 447.995C263.329 444.362 265.146 439.404 265.146 433.122L265.146 428.133Z"/>
<path d="M401.502 379.17L401.502 459.913C401.502 467.919 400.517 475.156 398.546 481.622C396.575 488.089 393.527 493.571 389.4 498.066C385.274 502.562 380.07 506.042 373.788 508.506C367.506 510.969 360.053 512.201 351.431 512.201C343.178 512.201 335.357 511.154 327.966 509.06C320.575 506.966 313.739 503.147 307.457 497.605L320.76 479.498C325.194 483.562 329.814 486.703 334.617 488.921C339.421 491.138 344.964 492.246 351.246 492.246C356.543 492.246 361.008 491.507 364.642 490.029C368.275 488.551 371.17 486.519 373.326 483.932C375.481 481.345 377.021 478.235 377.945 474.601C378.869 470.968 379.33 466.934 379.33 462.499L379.33 456.033L378.961 456.033C375.758 460.344 371.509 463.577 366.212 465.733C360.916 467.888 355.496 468.966 349.953 468.966C343.301 468.966 337.266 467.765 331.846 465.363C326.426 462.961 321.776 459.728 317.896 455.663C314.016 451.598 311.029 446.794 308.935 441.251C306.841 435.708 305.794 429.796 305.794 423.514C305.794 416.986 306.78 410.888 308.75 405.222C310.721 399.556 313.616 394.629 317.434 390.441C321.253 386.253 325.841 382.958 331.199 380.556C336.557 378.154 342.686 376.953 349.583 376.953C355.865 376.953 361.716 378.185 367.136 380.649C372.556 383.112 376.867 387.054 380.07 392.474L380.439 392.474L380.439 379.17L401.502 379.17ZM354.203 396.908C350.261 396.908 346.689 397.555 343.486 398.848C340.284 400.141 337.543 401.927 335.264 404.206C332.985 406.485 331.199 409.256 329.906 412.52C328.613 415.785 327.966 419.388 327.966 423.329C327.966 426.901 328.613 430.227 329.906 433.306C331.199 436.386 333.016 439.096 335.357 441.436C337.697 443.776 340.468 445.624 343.671 446.979C346.874 448.334 350.322 449.011 354.018 449.011C358.083 449.011 361.747 448.334 365.011 446.979C368.275 445.624 371.047 443.807 373.326 441.528C375.604 439.25 377.36 436.509 378.591 433.306C379.823 430.104 380.439 426.655 380.439 422.96C380.439 415.2 378.099 408.918 373.418 404.114C368.737 399.31 362.332 396.908 354.203 396.908Z"/>
<path d="M444.368 431.274C445.107 437.926 447.693 443.099 452.128 446.794C456.562 450.49 461.92 452.337 468.202 452.337C473.745 452.337 478.395 451.198 482.152 448.919C485.909 446.64 489.204 443.776 492.037 440.328L507.927 452.337C502.753 458.742 496.964 463.3 490.559 466.01C484.154 468.72 477.44 470.075 470.419 470.075C463.768 470.075 457.486 468.966 451.573 466.749C445.661 464.532 440.549 461.391 436.238 457.326C431.927 453.261 428.509 448.365 425.984 442.637C423.458 436.909 422.196 430.535 422.196 423.514C422.196 416.493 423.458 410.119 425.984 404.391C428.509 398.663 431.927 393.767 436.238 389.702C440.549 385.637 445.661 382.496 451.573 380.279C457.486 378.062 463.768 376.953 470.419 376.953C476.578 376.953 482.214 378.031 487.325 380.187C492.437 382.342 496.81 385.452 500.444 389.517C504.077 393.582 506.91 398.602 508.943 404.576C510.975 410.55 511.991 417.417 511.991 425.177L511.991 431.274L444.368 431.274ZM489.82 414.645C489.696 408.117 487.664 402.974 483.722 399.217C479.781 395.461 474.299 393.582 467.278 393.582C460.627 393.582 455.361 395.491 451.481 399.31C447.601 403.128 445.23 408.24 444.368 414.645L489.82 414.645Z"/>
</g>
</g>
</svg>
